<svg width="48" height="48" viewBox="0 0 48 48" fill="none" xmlns="http://www.w3.org/2000/svg">
<g id="local_pizza_FILL0_wght400_GRAD0_opsz48 1">
<path id="Vector" d="M24 44L4 13.75C6.86667 11.35 10 9.45833 13.4 8.075C16.8 6.69167 20.3333 6 24 6C27.6667 6 31.2 6.69167 34.6 8.075C38 9.45833 41.1333 11.35 44 13.75L24 44ZM24 38.65L40.05 14.45C37.65 12.8833 35.0971 11.5833 32.3914 10.55C29.6857 9.51667 26.8885 9 24 9C21.0987 9 18.2983 9.51667 15.599 10.55C12.8997 11.5833 10.35 12.8833 7.95 14.45L24 38.65ZM18.5029 19.75C19.2676 19.75 19.9167 19.4823 20.45 18.947C20.9833 18.4117 21.25 17.7617 21.25 16.997C21.25 16.2323 20.9824 15.5833 20.4471 15.05C19.9118 14.5167 19.2618 14.25 18.4971 14.25C17.7324 14.25 17.0833 14.5177 16.55 15.053C16.0167 15.5883 15.75 16.2383 15.75 17.003C15.75 17.7677 16.0176 18.4167 16.5529 18.95C17.0882 19.4833 17.7382 19.75 18.5029 19.75ZM24.0029 30.5C24.7676 30.5 25.4167 30.2324 25.95 29.6971C26.4833 29.1618 26.75 28.5118 26.75 27.7471C26.75 26.9824 26.4823 26.3333 25.947 25.8C25.4117 25.2667 24.7618 25 23.9971 25C23.2324 25 22.5833 25.2676 22.05 25.8029C21.5167 26.3382 21.25 26.9882 21.25 27.7529C21.25 28.5176 21.5176 29.1667 22.0529 29.7C22.5882 30.2333 23.2382 30.5 24.0029 30.5Z" fill="#FF7A00"/>
</g>
</svg>
